<?xml version="1.0" standalone="no"?><!DOCTYPE svg PUBLIC "-//W3C//DTD SVG 1.1//EN" "http://www.w3.org/Graphics/SVG/1.1/DTD/svg11.dtd"><svg t="1732689858377" class="icon" viewBox="0 0 1024 1024" version="1.1" xmlns="http://www.w3.org/2000/svg" p-id="6324" xmlns:xlink="http://www.w3.org/1999/xlink" width="200" height="200"><path d="M512 960A448 448 0 1 1 960 512 448.5 448.5 0 0 1 512 960z m0-832a384 384 0 1 0 384 384 384.5 384.5 0 0 0-384-384z" fill="#333333" p-id="6325"></path><path d="M567.8 800a31.6 31.6 0 0 1-22.6-9.4 31.9 31.9 0 0 1 0-45.2 330 330 0 0 0 0-466.8 32 32 0 1 1 45.3-45.2 394 394 0 0 1 0 557.2 31.9 31.9 0 0 1-22.7 9.4z" fill="#333333" p-id="6326"></path><path d="M450 681.8a32 32 0 0 1-22.6-54.6 163 163 0 0 0 0-230 32 32 0 0 1 45.2-45.3 226.9 226.9 0 0 1 0 321 31.9 31.9 0 0 1-22.6 8.9z" fill="#333333" p-id="6327"></path><path d="M311.8 512m-55.7 0a55.7 55.7 0 1 0 111.4 0 55.7 55.7 0 1 0-111.4 0Z" fill="#333333" p-id="6328"></path></svg>