<?xml version="1.0" encoding="UTF-8"?><svg version="1.1" width="142px" height="188px" viewBox="0 0 142.0 188.0" xmlns="http://www.w3.org/2000/svg" xmlns:xlink="http://www.w3.org/1999/xlink"><defs><clipPath id="i0"><path d="M100.671395,0 C101.441197,0 102.179441,0.3097661 102.725442,0.859030922 L141.151302,39.7527386 C141.692884,40.3042565 142,41.0529838 142,43.3793864 L142,183.839286 C142,184.992459 139.836977,187.181818 137.168698,187.181818 L4.83130233,187.181818 C2.16302328,187.181818 0,184.992459 0,183.839286 L0,6.43771758 C0,2.18935879 2.16302328,0 4.83130233,0 Z"></path></clipPath><clipPath id="i1"><path d="M0,0 L38.7272727,38.7272727 L0,38.7272727 L0,0 Z"></path></clipPath><clipPath id="i2"><path d="M142,0 L142,51.1253155 C142,53.784082 139.836977,55.9393939 137.168698,55.9393939 L4.83130233,55.9393939 C2.16304773,55.9393939 0,53.7840576 0,51.1253155 L0,0 L142,0 Z"></path></clipPath><clipPath id="i3"><path d="M20.394519,0 L20.394519,26.1058371 C20.394519,27.682365 20.1067598,29.0094422 19.534549,30.0837429 C18.9623381,31.1580435 18.1949804,32.0228055 17.2291678,32.6747031 C16.2633553,33.3266006 15.1553171,33.7822638 13.9050531,34.0383664 C12.6323557,34.2972161 11.3369625,34.4264745 10.0384957,34.4242133 C9.37698028,34.4242133 8.59639224,34.3543372 7.70996171,34.2179707 C6.82353118,34.0816042 5.9007171,33.8720659 4.95144254,33.5827032 C4.00216797,33.2933406 3.08927678,32.9673918 2.21607641,32.6048569 C1.34287603,32.242322 0.60528644,31.833223 0,31.3775598 L2.30538093,27.6956691 C2.60637043,27.9052076 3.03635545,28.1280501 3.59533599,28.3542186 C4.15431654,28.580387 4.76621823,28.7932516 5.42773364,28.9894862 C6.08924904,29.1857208 6.78384018,29.3586731 7.50819944,29.5116694 C8.2325587,29.6646658 8.91061207,29.7378381 9.54235917,29.7378379 C11.1399188,29.7378379 12.4133359,29.4251932 13.3626105,28.8065556 C14.311885,28.1879181 14.8146368,27.1302476 14.8774807,25.6468481 L14.8774807,0 L20.394519,0 Z M66.2507649,0.139692338 C68.2386187,0.139692338 70.0710162,0.50887918 71.74465,1.25390498 C73.4182839,1.99893079 74.8802329,3.07988338 76.1304969,4.50674093 C77.380761,5.93359849 78.3631113,7.71301277 79.0709328,9.84830983 C79.7787543,11.9836069 80.1326651,14.4614831 80.1326651,17.2819377 C80.1326651,20.1023926 79.7787545,22.5869205 79.0709328,24.7388479 C78.3631111,26.8907753 77.380761,28.6801674 76.1304969,30.1036989 C74.8802329,31.5272304 73.4182839,32.6048569 71.74465,33.3332526 C70.0710162,34.0616483 68.2386186,34.4241833 66.2507649,34.4241833 C64.2629113,34.4241833 62.4305136,34.0616484 60.7568796,33.3332526 C59.0832456,32.6048567 57.6212967,31.5305562 56.3710327,30.1036989 C55.1207686,28.6768415 54.1384183,26.8907751 53.4305968,24.7388479 C52.7227754,22.5869207 52.3688647,20.0990667 52.3688647,17.2819377 C52.3688647,14.4648087 52.7227754,11.9836069 53.4305968,9.84830983 C54.1384183,7.71301277 55.1207686,5.93027243 56.3710327,4.50674093 C57.6212967,3.08320944 59.0832458,1.99893079 60.7568796,1.25390498 C62.4305134,0.50887918 64.2629111,0.139692338 66.2507649,0.139692338 Z M38.3447387,0.139692338 C39.7306133,0.139692338 41.1330259,0.269406678 42.5486689,0.525509298 C43.9643119,0.781611918 45.1087334,1.20068893 45.9852413,1.77608822 C45.8033246,2.16855712 45.5949472,2.60093819 45.3534941,3.07323144 L44.6754408,4.39033065 C44.4670634,4.79942967 44.2851468,5.14200839 44.1329982,5.41474113 C43.9808496,5.68747387 43.8915451,5.84047008 43.861777,5.87040426 C43.6798603,5.78060209 43.4780981,5.66086575 43.2498753,5.50786936 C43.0216525,5.35487296 42.7008175,5.20520262 42.2774477,5.05220623 C41.8540779,4.89920983 41.298405,4.79610361 40.6038137,4.73290938 C39.9092224,4.66971515 39.0194844,4.68634526 37.9345992,4.77947349 C37.3293126,4.84266772 36.7604094,5.01229405 36.2146591,5.30165673 C35.6689089,5.5910194 35.1893104,5.94357631 34.7659404,6.36930544 C34.3425705,6.79503457 34.0118129,7.2706537 33.7703598,7.80281494 C33.5289067,8.33497617 33.4098339,8.84385553 33.4098341,9.3261266 C33.4098341,10.5367935 33.753822,11.5146399 34.4484132,12.2596657 C35.1430043,13.0046915 36.0029744,13.653263 37.0250155,14.2153584 C38.0470566,14.7774538 39.1650177,15.3229191 40.3722833,15.8517543 C41.5795489,16.3805895 42.7008175,17.0291612 43.7427042,17.784165 C44.7845909,18.5391688 45.6478684,19.490407 46.3424595,20.6245759 C47.0370507,21.7587447 47.3942691,23.2221882 47.3942691,25.0115805 C47.3942691,26.2222474 47.1462008,27.3996543 46.6467567,28.537149 C46.1473125,29.6746437 45.4494137,30.6757721 44.5431378,31.5372084 C43.6368619,32.3986446 42.5255159,33.0904542 41.19587,33.6059853 C39.8662241,34.1215164 38.3645842,34.3776192 36.6744125,34.3776192 C35.9500532,34.3776192 35.2058483,34.3377071 34.4351828,34.2645348 C33.6645173,34.1913626 32.8905444,34.0583224 32.1066487,33.878718 C31.322753,33.6957877 30.5752405,33.446337 29.8674192,33.1270401 C29.1595979,32.8077433 28.5510037,32.4219265 28.0350216,31.9662634 L28.9842962,28.0548779 C29.4076659,28.2976765 29.9401858,28.5338231 30.5884709,28.7599915 C31.2367559,28.98616 31.9048864,29.1990245 32.5994777,29.3952592 C33.2940691,29.5914938 33.9853524,29.751142 34.6799435,29.8742044 C35.3745347,29.9972668 36.0195121,30.0571347 36.6247988,30.0571347 C38.4638115,30.0571347 39.8728392,29.6247537 40.851882,28.7599915 C41.8309249,27.8952294 42.3204461,26.6147163 42.3204461,24.9184522 C42.3204461,23.8873898 41.9764582,23.0093236 41.2818671,22.2809279 C40.5872759,21.5525322 39.7206908,20.8939825 38.6821115,20.3019531 C37.6435323,19.7099237 36.5189563,19.1212202 35.3116907,18.5291908 C34.104425,17.9371614 32.9765414,17.2386997 31.9214244,16.4371318 C30.8663073,15.6355639 29.9931071,14.6876515 29.298516,13.5967209 C28.6039248,12.5057903 28.2599369,11.142127 28.2599367,9.50573093 C28.2599367,8.02233126 28.5311581,6.70190617 29.0736007,5.55110741 C29.6160433,4.40030865 30.3470178,3.41913622 31.2665242,2.61756831 C32.1860307,1.81600039 33.2576855,1.20068893 34.4781813,0.774959798 C35.698677,0.349230663 36.9886321,0.139692338 38.3447387,0.139692338 Z M93.2935135,0.685157632 L106.36175,23.7842836 L106.36175,0.685157632 L111.878788,0.685157632 L111.878788,34.1980147 L106.36175,34.1980147 L93.2935135,11.0988888 L93.2935135,34.1980147 L87.7764751,34.1980147 L87.7764751,0.685157632 L93.2935135,0.685157632 Z M66.3830679,4.64310721 C65.2684144,4.64310721 64.2066823,4.85264572 63.1945639,5.27837467 C62.1824454,5.70410362 61.2794768,6.42252149 60.4823508,7.43695397 C59.6852248,8.45138645 59.0567851,9.76183355 58.6069547,11.3716215 C58.1538166,12.9780834 57.9123635,14.9470802 57.8825954,17.2819377 C57.9123635,19.5569273 58.1472015,21.4959899 58.5838016,23.1024518 C59.0204017,24.7089137 59.6223807,26.0193608 60.3930462,27.0371194 C61.1637118,28.0548779 62.036912,28.7932516 63.0159546,29.2655448 C63.9949973,29.7378381 65.030269,29.9706585 66.1151541,29.9706585 C67.2298076,29.9706585 68.2915397,29.751142 69.3036583,29.3121089 C70.3157769,28.8730759 71.2187454,28.1513322 72.0158714,27.1535296 C72.8129974,26.1557271 73.4414371,24.8419541 73.8912675,23.2188621 C74.3410979,21.5957701 74.5858586,19.6201214 74.6156268,17.2852638 C74.5858586,15.0102742 74.3510206,13.0778635 73.9144205,11.4880318 C73.4778204,9.89820001 72.8758415,8.58442667 72.1051759,7.55336425 C71.3345104,6.52230184 70.4613102,5.78060191 69.4822675,5.32493878 C68.5032249,4.86927565 67.4712609,4.64310721 66.3830679,4.64310721 Z"></path></clipPath><clipPath id="i4"><path d="M20.2857143,0 C22.1529627,0 23.6666667,1.54122585 23.6666667,3.44242428 C23.6666667,5.34362271 22.1529627,6.88484856 20.2857143,6.88484856 C18.4194286,6.88484856 16.904762,8.43049691 16.904762,10.3272727 L16.904762,24.0969697 C16.8921883,28.0664913 15.1872424,31.8348233 12.2322857,34.4242424 C15.0722858,36.9509818 16.904762,40.6206061 16.904762,44.7515152 L16.904762,58.5212121 C16.904762,60.4179879 18.4194286,61.9636365 20.2857143,61.9636365 C22.1529627,61.9636365 23.6666667,63.5048623 23.6666667,65.4060607 C23.6666667,67.307259 22.1529627,68.8484848 20.2857143,68.8484848 C14.693619,68.8484848 10.1428572,64.2149817 10.1428572,58.5212121 L10.1428572,44.7515152 C10.1428572,40.9545214 7.11014287,37.8666668 3.38095239,37.8666668 C1.51370395,37.8666668 0,36.325441 0,34.4242425 C0,32.5230441 1.51370395,30.9818182 3.38095239,30.9818182 C7.11014287,30.9818182 10.1428572,27.8939636 10.1428572,24.0969697 L10.1428572,10.3272727 C10.1428572,4.63350295 14.6936192,0 20.2857143,0 Z"></path></clipPath><clipPath id="i5"><path d="M5.37878788,0 C8.3494104,0 10.7575758,2.40816536 10.7575758,5.37878788 C10.7575758,8.3494104 8.3494104,10.7575758 5.37878788,10.7575758 C2.40816536,10.7575758 0,8.3494104 0,5.37878788 C0,2.40816536 2.40816536,0 5.37878788,0 Z"></path></clipPath><clipPath id="i6"><path d="M27.0476191,0 C32.6397145,0 37.1904763,4.63350313 37.1904763,10.3272727 L37.1904763,24.0969697 C37.1904761,27.8939636 40.2231905,30.9818182 43.952381,30.9818182 C45.8196294,30.9818182 47.3333334,32.5230441 47.3333334,34.4242425 C47.3333334,36.325441 45.8196294,37.8666668 43.952381,37.8666668 C40.2231906,37.8666666 37.1904763,40.9545212 37.1904763,44.7515152 L37.1904763,58.5212121 C37.1904763,64.2149819 32.6397143,68.8484848 27.0476191,68.8484848 C25.1803707,68.8484848 23.6666667,67.307259 23.6666667,65.4060607 C23.6666667,63.5048623 25.1803707,61.9636365 27.0476191,61.9636365 C28.9139048,61.9636363 30.4285714,60.4179879 30.4285714,58.5212121 L30.4285714,44.7515152 C30.441145,40.7819936 32.1460909,37.0136615 35.1010476,34.4242424 C32.2610476,31.8975031 30.4285714,28.2278787 30.4285714,24.0969697 L30.4285714,10.3272727 C30.4285714,8.4304971 28.9139048,6.88484856 27.0476191,6.88484856 C25.1803706,6.88484856 23.6666667,5.34362271 23.6666667,3.44242428 C23.6666667,1.54122585 25.1803706,0 27.0476191,0 Z M3.38095234,41.309091 C5.24820076,41.309091 6.76190468,42.8503168 6.76190468,44.7515152 L6.76190468,55.0787879 C6.76190468,56.9799863 5.24820076,58.5212121 3.38095234,58.5212121 C1.51370392,58.5212121 0,56.9799863 0,55.0787879 L0,44.7515152 C0,42.8503168 1.51370392,41.309091 3.38095234,41.309091 Z"></path></clipPath></defs><g clip-path="url(#i0)"><polygon points="0,0 142,0 142,187.181818 0,187.181818 0,0" stroke="none" fill="#EDF6FD"></polygon></g><g transform="translate(103.27272727272728 0.0)"><g clip-path="url(#i1)"><polygon points="0,0 38.7272727,0 38.7272727,38.7272727 0,38.7272727 0,0" stroke="none" fill="#CBDEED"></polygon></g></g><g transform="translate(0.0 131.24242424242425)"><g clip-path="url(#i2)"><polygon points="0,0 142,0 142,55.9393939 0,55.9393939 0,0" stroke="none" fill="#1979DA"></polygon></g></g><g transform="translate(17.212121212121197 142.00000000000006)"><g clip-path="url(#i3)"><polygon points="0,0 111.878788,0 111.878788,34.4242424 0,34.4242424 0,0" stroke="none" fill="#FFFFFF"></polygon></g></g><g transform="translate(25.81818181818182 38.727272727272734)"><g clip-path="url(#i4)"><polygon points="0,0 23.6666667,0 23.6666667,68.8484848 0,68.8484848 0,0" stroke="none" fill="#1979DA"></polygon></g></g><g transform="translate(64.54545454545456 55.93939393939395)"><g clip-path="url(#i5)"><polygon points="0,0 10.7575758,0 10.7575758,10.7575758 0,10.7575758 0,0" stroke="none" fill="#1979DA"></polygon></g></g><g transform="translate(68.84848484848484 38.727272727272734)"><g clip-path="url(#i6)"><polygon points="0,0 47.3333334,0 47.3333334,68.8484848 0,68.8484848 0,0" stroke="none" fill="#1979DA"></polygon></g></g></svg>