<?xml version="1.0" encoding="UTF-8"?><svg version="1.1" width="142px" height="176px" viewBox="0 0 142.0 176.0" xmlns="http://www.w3.org/2000/svg" xmlns:xlink="http://www.w3.org/1999/xlink"><defs><clipPath id="i0"><path d="M83.3333334,0 L83.3333334,35.4166668 C83.3333334,38.8625002 86.1375,41.6666668 89.5833334,41.6666668 L125,41.6666668 L125,164.583333 C125,165.733927 124.06726,166.666667 122.916667,166.666667 L2.0833334,166.666667 C0.932740134,166.666667 0,165.733927 0,164.583333 L0,2.0833334 C0,0.932740134 0.932740134,0 2.0833334,0 L83.3333334,0 Z"></path></clipPath><clipPath id="i1"><path d="M0,0 L36.6375,36.6375 L2.0833334,36.6375 C0.93274021,36.6375 0,35.70476 0,34.5541668 L0,0 Z"></path></clipPath><clipPath id="i2"><path d="M89.9416666,2.49329521e-05 C91.6001412,-0.00467340904 93.1914669,0.65481519 94.3604166,1.83130013 L131.502083,38.9729667 C132.68125,40.1542167 133.333333,41.7250501 133.333333,43.3917167 L133.333333,168.75005 C133.333333,172.195884 130.529167,175.00005 127.083333,175.00005 L6.25,175.00005 C2.8041666,175.00005 0,172.195884 0,168.75005 L0,6.25005013 C0,2.80421673 2.8041666,2.49329521e-05 6.25,2.49329521e-05 Z M87.5,4.16671673 L6.25,4.16671673 C5.09940674,4.16671673 4.1666666,5.09945687 4.1666666,6.25005013 L4.1666666,168.75005 C4.1666666,169.900643 5.09940674,170.833384 6.25,170.833384 L127.083333,170.833384 C128.233926,170.833384 129.166667,169.900643 129.166667,168.75005 L129.166667,45.8333835 L93.75,45.8333835 C90.3041666,45.8333835 87.5,43.0292169 87.5,39.5833835 L87.5,4.16671673 Z M91.6666666,5.02921673 L91.6666666,39.5833835 C91.6666666,40.7339767 92.5994068,41.6667167 93.75,41.6667167 L128.304167,41.6667167 L91.6666666,5.02921673 Z"></path></clipPath><clipPath id="i3"><path d="M97.9166668,37.5 C99.06726,37.5 100,38.4327401 100,39.5833334 C100,40.7339267 99.06726,41.6666668 97.9166668,41.6666668 L2.08333357,41.6666668 C0.932740309,41.6666668 1.75611866e-07,40.7339267 1.75611866e-07,39.5833334 C1.75611866e-07,38.4327401 0.932740309,37.5 2.08333357,37.5 L97.9166668,37.5 Z M97.9166668,25 C99.06726,25 100,25.9327401 100,27.0833334 C100,28.2339267 99.06726,29.1666668 97.9166668,29.1666668 L2.08333357,29.1666668 C1.3390302,29.1666668 0.651265487,28.7695858 0.27911378,28.1250001 C-0.0930379267,27.4804145 -0.0930379267,26.6862523 0.27911378,26.0416666 C0.651265487,25.397081 1.3390302,25 2.08333357,25 L97.9166668,25 Z M97.9166668,12.5 C99.06726,12.5 100,13.4327401 100,14.5833334 C100,15.7339267 99.06726,16.6666668 97.9166668,16.6666668 L2.08333357,16.6666668 C1.3390302,16.6666668 0.651265487,16.2695858 0.27911378,15.6250001 C-0.0930379267,14.9804145 -0.0930379267,14.1862523 0.27911378,13.5416666 C0.651265487,12.897081 1.3390302,12.5 2.08333357,12.5 L97.9166668,12.5 Z M97.9166668,0 C99.06726,0 100,0.932740134 100,2.0833334 C100,3.23392666 99.06726,4.1666668 97.9166668,4.1666668 L2.08333357,4.1666668 C0.932740309,4.1666668 1.75611866e-07,3.23392666 1.75611866e-07,2.0833334 C1.75611866e-07,0.932740134 0.932740309,0 2.08333357,0 L97.9166668,0 Z"></path></clipPath><clipPath id="i4"><path d="M108.431283,0.00629973036 L137.512533,0.085483059 C138.617603,0.0887932452 139.676097,0.530957913 140.455155,1.31470481 C141.234214,2.09845171 141.67002,3.15957959 141.666718,4.26464986 L141.591699,31.2625665 C141.584805,33.5621261 139.716265,35.4213426 137.416699,35.4167416 L108.333366,35.3375665 C107.780831,35.3359113 107.251584,35.114829 106.862055,34.7229556 C106.472525,34.3310821 106.254622,33.8005182 106.256273,33.2479831 L106.339616,2.08339986 C106.34127,1.5305025 106.562639,1.00093883 106.954963,0.61134966 C107.347288,0.221760486 107.878387,0.004102418 108.431283,0.00629973036 Z M4.18753256,3.29778273e-05 L33.339616,0.079233059 C34.4877677,0.0826775296 35.4166994,1.01440956 35.4166994,2.16256646 L35.4166994,33.3271499 C35.4166994,33.8807688 35.1963506,34.4116221 34.804297,34.802503 C34.4122434,35.1933839 33.8807324,35.4121439 33.327116,35.4104924 L4.08961595,35.3313165 C1.78336595,35.3250665 -0.00621744389,33.4542331 1.62355571e-05,31.1521499 L1.62355571e-05,4.15423306 C0.00444404449,3.04805656 0.448106296,1.98893961 1.2334168,1.20988035 C2.0187273,0.430821087 3.08135612,-0.00436264265 4.18753256,3.29778273e-05 Z"></path></clipPath><clipPath id="i5"><path d="M138,0 C140.209139,-4.05812251e-16 142,1.790861 142,4 L142,42 C142,44.209139 140.209139,46 138,46 L4,46 C1.790861,46 2.705415e-16,44.209139 0,42 L0,4 C-2.705415e-16,1.790861 1.790861,4.05812251e-16 4,0 L138,0 Z"></path></clipPath><clipPath id="i6"><path d="M121,0 L121,58 L0,58 L0,0 L121,0 Z"></path></clipPath></defs><g transform="translate(8.333365954545656 4.166716734726606)"><g clip-path="url(#i0)"><polygon points="0,0 125,0 125,166.666667 0,166.666667 0,0" stroke="none" fill="#FFFFFF"></polygon></g></g><g transform="translate(95.83336595454566 5.029216734726607)"><g clip-path="url(#i1)"><polygon points="0,0 36.6375,0 36.6375,36.6375 0,36.6375 0,0" stroke="none" fill="#FFFFFF"></polygon></g></g><g transform="translate(4.166699352983159 0.0)"><g clip-path="url(#i2)"><polygon points="0,4.62765504e-15 133.333333,4.62765504e-15 133.333333,175.00005 0,175.00005 0,4.62765504e-15" stroke="none" fill="#605E5C" opacity="64%"></polygon></g></g><g transform="translate(20.833365778933796 60.41671673472662)"><g clip-path="url(#i3)"><polygon points="0,0 100,0 100,41.6666668 0,41.6666668 0,0" stroke="none" fill="#C8C6C3"></polygon></g></g><g transform="translate(0.0 118.74998367569387)"><g clip-path="url(#i4)"><polygon points="-3.90390828e-15,-2.77703701e-15 141.666737,-2.77703701e-15 141.666737,35.4167501 -3.90390828e-15,35.4167501 -3.90390828e-15,-2.77703701e-15" stroke="none" fill="#D65532"></polygon></g></g><g transform="translate(0.0 112.0)"><g clip-path="url(#i5)"><polygon points="0,0 142,0 142,46 0,46 0,0" stroke="none" fill="#D65531"></polygon></g></g><g transform="translate(10.0 118.0)"><g clip-path="url(#i6)"><text transform="translate(28.060999999999993 29.0)" font-family="SourceHanSansCN-Bold, Source Han Sans CN" font-size="33.0" font-weight="bold" fill="#FFFFFF" text-anchor="center">PDF</text></g></g></svg>