<?xml version="1.0" encoding="UTF-8"?><svg version="1.1" width="134px" height="176px" viewBox="0 0 134.0 176.0" xmlns="http://www.w3.org/2000/svg" xmlns:xlink="http://www.w3.org/1999/xlink"><defs><clipPath id="i0"><path d="M83.3333334,0 L83.3333334,35.4166668 C83.3333334,38.8625002 86.1375,41.6666668 89.5833334,41.6666668 L125,41.6666668 L125,164.583333 C125,165.733927 124.06726,166.666667 122.916667,166.666667 L2.0833334,166.666667 C0.932740134,166.666667 0,165.733927 0,164.583333 L0,2.0833334 C0,0.932740134 0.932740134,0 2.0833334,0 L83.3333334,0 Z"></path></clipPath><clipPath id="i1"><path d="M0,0 L36.6375,36.6375 L2.0833334,36.6375 C0.93274021,36.6375 0,35.70476 0,34.5541668 L0,0 Z"></path></clipPath><clipPath id="i2"><path d="M89.9416666,2.49329521e-05 C91.6001412,-0.00467340904 93.1914669,0.65481519 94.3604166,1.83130013 L131.502083,38.9729667 C132.68125,40.1542167 133.333333,41.7250501 133.333333,43.3917167 L133.333333,168.75005 C133.333333,172.195884 130.529167,175.00005 127.083333,175.00005 L6.25,175.00005 C2.8041666,175.00005 0,172.195884 0,168.75005 L0,6.25005013 C0,2.80421673 2.8041666,2.49329521e-05 6.25,2.49329521e-05 Z M87.5,4.16671673 L6.25,4.16671673 C5.09940674,4.16671673 4.1666666,5.09945687 4.1666666,6.25005013 L4.1666666,168.75005 C4.1666666,169.900643 5.09940674,170.833384 6.25,170.833384 L127.083333,170.833384 C128.233926,170.833384 129.166667,169.900643 129.166667,168.75005 L129.166667,45.8333835 L93.75,45.8333835 C90.3041666,45.8333835 87.5,43.0292169 87.5,39.5833835 L87.5,4.16671673 Z M91.6666666,5.02921673 L91.6666666,39.5833835 C91.6666666,40.7339767 92.5994068,41.6667167 93.75,41.6667167 L128.304167,41.6667167 L91.6666666,5.02921673 Z"></path></clipPath><clipPath id="i3"><path d="M97.9166668,37.5 C99.06726,37.5 100,38.4327401 100,39.5833334 C100,40.7339267 99.06726,41.6666668 97.9166668,41.6666668 L2.08333357,41.6666668 C0.932740309,41.6666668 1.75612513e-07,40.7339267 1.75612513e-07,39.5833334 C1.75612513e-07,38.4327401 0.932740309,37.5 2.08333357,37.5 L97.9166668,37.5 Z M97.9166668,25 C99.06726,25 100,25.9327401 100,27.0833334 C100,28.2339267 99.06726,29.1666668 97.9166668,29.1666668 L2.08333357,29.1666668 C0.932740309,29.1666668 1.75612513e-07,28.2339267 1.75612513e-07,27.0833334 C1.75612513e-07,25.9327401 0.932740309,25 2.08333357,25 L97.9166668,25 Z M97.9166668,12.5 C99.06726,12.5 100,13.4327401 100,14.5833334 C100,15.7339267 99.06726,16.6666668 97.9166668,16.6666668 L2.08333357,16.6666668 C1.3390302,16.6666668 0.651265487,16.2695858 0.27911378,15.6250001 C-0.0930379267,14.9804145 -0.0930379267,14.1862523 0.27911378,13.5416666 C0.651265487,12.897081 1.3390302,12.5 2.08333357,12.5 L97.9166668,12.5 Z M97.9166668,0 C99.06726,0 100,0.932740134 100,2.0833334 C100,3.23392666 99.06726,4.1666668 97.9166668,4.1666668 L2.08333357,4.1666668 C0.932740309,4.1666668 1.75612513e-07,3.23392666 1.75612513e-07,2.0833334 C1.75612513e-07,0.932740134 0.932740309,0 2.08333357,0 L97.9166668,0 Z"></path></clipPath><clipPath id="i4"><path d="M121,0 L121,58 L0,58 L0,0 L121,0 Z"></path></clipPath></defs><g transform="translate(4.166666601562497 4.166716734726606)"><g clip-path="url(#i0)"><polygon points="0,0 125,0 125,166.666667 0,166.666667 0,0" stroke="none" fill="#FFFFFF"></polygon></g></g><g transform="translate(91.6666666015625 5.029216734726607)"><g clip-path="url(#i1)"><polygon points="0,0 36.6375,0 36.6375,36.6375 0,36.6375 0,0" stroke="none" fill="#FFFFFF"></polygon></g></g><g clip-path="url(#i2)"><polygon points="0,4.62765504e-15 133.333333,4.62765504e-15 133.333333,175.00005 0,175.00005 0,4.62765504e-15" stroke="none" fill="#605E5C" opacity="64%"></polygon></g><g transform="translate(16.666666425950098 72.9167167347266)"><g clip-path="url(#i3)"><polygon points="0,0 100,0 100,41.6666668 0,41.6666668 0,0" stroke="none" fill="#C8C6C3"></polygon></g></g><g transform="translate(6.0 118.0)"><g clip-path="url(#i4)"><text transform="translate(29.5295 29.0)" font-family="SourceHanSansCN-Bold, Source Han Sans CN" font-size="33.0" font-weight="bold" fill="#979695" text-anchor="center">TXT</text></g></g></svg>