<?xml version="1.0" encoding="UTF-8"?><svg version="1.1" width="167px" height="175px" viewBox="0 0 167.0 175.0" xmlns="http://www.w3.org/2000/svg" xmlns:xlink="http://www.w3.org/1999/xlink"><defs><clipPath id="i0"><path d="M83.3333334,0 L83.3333334,35.4166668 C83.3333334,38.8625002 86.1375,41.6666668 89.5833334,41.6666668 L125,41.6666668 L125,164.583333 C125,165.733927 124.06726,166.666667 122.916667,166.666667 L2.0833334,166.666667 C0.932740134,166.666667 0,165.733927 0,164.583333 L0,2.0833334 C0,0.932740134 0.932740134,0 2.0833334,0 L83.3333334,0 Z"></path></clipPath><clipPath id="i1"><path d="M0,0 L36.6375,36.6375 L2.0833334,36.6375 C0.93274021,36.6375 0,35.70476 0,34.5541668 L0,0 Z"></path></clipPath><clipPath id="i2"><path d="M89.9416666,2.49329521e-05 C91.6001412,-0.00467340904 93.1914669,0.65481519 94.3604166,1.83130013 L131.502083,38.9729667 C132.68125,40.1542167 133.333333,41.7250501 133.333333,43.3917167 L133.333333,168.75005 C133.333333,172.195884 130.529167,175.00005 127.083333,175.00005 L6.25,175.00005 C2.8041666,175.00005 0,172.195884 0,168.75005 L0,6.25005013 C0,2.80421673 2.8041666,2.49329521e-05 6.25,2.49329521e-05 Z M87.5,4.16671673 L6.25,4.16671673 C5.09940674,4.16671673 4.1666666,5.09945687 4.1666666,6.25005013 L4.1666666,168.75005 C4.1666666,169.900643 5.09940674,170.833384 6.25,170.833384 L127.083333,170.833384 C128.233927,170.833384 129.166667,169.900643 129.166667,168.75005 L129.166667,45.8333835 L93.75,45.8333835 C90.3041666,45.8333835 87.5,43.0292169 87.5,39.5833835 L87.5,4.16671673 Z M91.6666666,5.02921673 L91.6666666,39.5833835 C91.6666666,40.7339767 92.5994068,41.6667167 93.75,41.6667167 L128.304167,41.6667167 L91.6666666,5.02921673 Z"></path></clipPath><clipPath id="i3"><path d="M25,0 C26.1505932,0 27.0833332,0.93274021 27.0833332,2.0833334 L27.0833332,6.25 C27.0833332,7.40059319 26.1505932,8.3333334 25,8.3333334 L2.0833332,8.3333334 C0.932740015,8.3333334 0,7.40059319 0,6.25 L0,2.0833334 C0,0.93274021 0.932740015,0 2.0833332,0 L25,0 Z"></path></clipPath><clipPath id="i4"><path d="M25,0 C26.1505933,0 27.0833334,0.932740134 27.0833334,2.0833334 L27.0833334,6.25 C27.0833334,7.40059326 26.1505933,8.3333334 25,8.3333334 L2.0833334,8.3333334 C0.932740134,8.3333334 0,7.40059326 0,6.25 L0,2.0833334 C0,0.932740134 0.932740134,0 2.0833334,0 L25,0 Z"></path></clipPath><clipPath id="i5"><path d="M25,0 C26.1505931,0 27.0833332,0.932740091 27.0833332,2.0833332 L27.0833332,6.25 C27.0833332,7.40059311 26.1505931,8.3333332 25,8.3333332 L2.0833332,8.3333332 C0.932740091,8.3333332 0,7.40059311 0,6.25 L0,2.0833332 C0,0.932740091 0.932740091,0 2.0833332,0 L25,0 Z"></path></clipPath><clipPath id="i6"><path d="M25,0 C26.1505932,0 27.0833334,0.932740015 27.0833334,2.0833332 L27.0833334,6.25 C27.0833334,7.40059319 26.1505932,8.3333332 25,8.3333332 L2.0833334,8.3333332 C0.93274021,8.3333332 0,7.40059319 0,6.25 L0,2.0833332 C0,0.932740015 0.93274021,0 2.0833334,0 L25,0 Z"></path></clipPath><clipPath id="i7"><path d="M25,0 C26.1505932,0 27.0833332,0.93274021 27.0833332,2.0833334 L27.0833332,6.25 C27.0833332,7.40059319 26.1505932,8.3333334 25,8.3333334 L2.0833332,8.3333334 C0.932740015,8.3333334 0,7.40059319 0,6.25 L0,2.0833334 C0,0.93274021 0.932740015,0 2.0833332,0 L25,0 Z"></path></clipPath><clipPath id="i8"><path d="M25,0 C25.5525344,0 26.0824384,0.219493424 26.4731392,0.610194225 C26.86384,1.00089503 27.0833334,1.53079903 27.0833334,2.0833334 L27.0833334,6.25 C27.0833334,7.40059326 26.1505933,8.3333334 25,8.3333334 L2.0833334,8.3333334 C0.932740134,8.3333334 0,7.40059326 0,6.25 L0,2.0833334 C0,0.932740134 0.932740134,0 2.0833334,0 L25,0 Z"></path></clipPath><clipPath id="i9"><path d="M75,0 C79.6023729,0 83.3333334,3.73096033 83.3333334,8.3333332 L83.3333334,75 C83.3333334,79.6023729 79.6023729,83.3333332 75,83.3333332 L8.3333334,83.3333332 C3.73096052,83.3333332 0,79.6023729 0,75 L0,8.3333332 C0,3.73096033 3.73096052,0 8.3333334,0 Z"></path></clipPath><clipPath id="i10"><path d="M13.4875,0 L21.7,15.9354166 C22.4541666,17.4458332 22.9729166,18.5729166 23.25625,19.3166666 L23.3625,19.3166666 C23.9083334,18.1083332 24.4729166,16.9354166 25.0625,15.7958334 L33.8416666,0 L44.95625,0 L29.5229166,24.7916666 L45.3479166,50 L33.5208334,50 L24.0333334,32.4958334 C23.5863831,31.7528698 23.2070809,30.9712562 22.9,30.1604166 L22.7604166,30.1604166 C22.59375,30.71875 22.2291666,31.4729166 21.6645834,32.4270834 L11.8958334,50 L0,50 L16.425,24.9291666 L1.3791666,0 L13.4875,0 Z"></path></clipPath></defs><g transform="translate(37.5 4.166716734726606)"><g clip-path="url(#i0)"><polygon points="0,0 125,0 125,166.666667 0,166.666667 0,0" stroke="none" fill="#FFFFFF"></polygon></g></g><g transform="translate(124.99999999999997 5.029216734726607)"><g clip-path="url(#i1)"><polygon points="0,0 36.6375,0 36.6375,36.6375 0,36.6375 0,0" stroke="none" fill="#FFFFFF"></polygon></g></g><g transform="translate(33.33333339843749 0.0)"><g clip-path="url(#i2)"><polygon points="0,4.61043319e-15 133.333333,4.61043319e-15 133.333333,175.00005 0,175.00005 0,4.61043319e-15" stroke="none" fill="#605E5C" opacity="64%"></polygon></g></g><g transform="translate(122.916666796875 112.50005013316414)"><g clip-path="url(#i3)"><polygon points="0,0 27.0833332,0 27.0833332,8.3333334 0,8.3333334 0,0" stroke="none" fill="#13492C"></polygon></g></g><g transform="translate(89.58333339843749 112.50005013316411)"><g clip-path="url(#i4)"><polygon points="0,0 27.0833334,0 27.0833334,8.3333334 0,8.3333334 0,0" stroke="none" fill="#185C37"></polygon></g></g><g transform="translate(122.916666796875 95.83338353160163)"><g clip-path="url(#i5)"><polygon points="0,0 27.0833332,0 27.0833332,8.3333332 0,8.3333332 0,0" stroke="none" fill="#20A366"></polygon></g></g><g transform="translate(89.58333339843749 95.83338353160163)"><g clip-path="url(#i6)"><polygon points="0,0 27.0833334,0 27.0833334,8.3333332 0,8.3333332 0,0" stroke="none" fill="#107C41"></polygon></g></g><g transform="translate(122.916666796875 79.16671673472663)"><g clip-path="url(#i7)"><polygon points="0,0 27.0833332,0 27.0833332,8.3333334 0,8.3333334 0,0" stroke="none" fill="#33C381"></polygon></g></g><g transform="translate(89.58333339843749 79.16671673472663)"><g clip-path="url(#i8)"><polygon points="0,0 27.0833334,0 27.0833334,8.3333334 0,8.3333334 0,0" stroke="none" fill="#20A366"></polygon></g></g><g transform="translate(-7.105427357601002e-15 58.333383531601605)"><g clip-path="url(#i9)"><polygon points="0,0 83.3333334,0 83.3333334,83.3333332 0,83.3333332 0,0" stroke="none" fill="#107C41"></polygon></g></g><g transform="translate(18.645833398437496 75.00005013316411)"><g clip-path="url(#i10)"><polygon points="0,0 45.3479166,0 45.3479166,50 0,50 0,0" stroke="none" fill="#F9F7F7"></polygon></g></g></svg>