<?xml version="1.0" encoding="UTF-8"?><svg version="1.1" width="167px" height="175px" viewBox="0 0 167.0 175.0" xmlns="http://www.w3.org/2000/svg" xmlns:xlink="http://www.w3.org/1999/xlink"><defs><clipPath id="i0"><path d="M83.3333334,0 L83.3333334,35.4166668 C83.3333334,38.8625002 86.1375,41.6666668 89.5833334,41.6666668 L125,41.6666668 L125,164.583333 C125,165.733927 124.06726,166.666667 122.916667,166.666667 L2.0833334,166.666667 C0.932740134,166.666667 0,165.733927 0,164.583333 L0,2.0833334 C0,0.932740134 0.932740134,0 2.0833334,0 L83.3333334,0 Z"></path></clipPath><clipPath id="i1"><path d="M0,0 L36.6375,36.6375 L2.0833334,36.6375 C0.93274021,36.6375 0,35.70476 0,34.5541668 L0,0 Z"></path></clipPath><clipPath id="i2"><path d="M89.9416666,2.49329521e-05 C91.6001412,-0.00467340904 93.1914669,0.65481519 94.3604166,1.83130013 L131.502083,38.9729667 C132.68125,40.1542167 133.333333,41.7250501 133.333333,43.3917167 L133.333333,168.75005 C133.333333,172.195884 130.529167,175.00005 127.083333,175.00005 L6.25,175.00005 C2.8041666,175.00005 0,172.195884 0,168.75005 L0,6.25005013 C0,2.80421673 2.8041666,2.49329521e-05 6.25,2.49329521e-05 Z M87.5,4.16671673 L6.25,4.16671673 C5.09940674,4.16671673 4.1666666,5.09945687 4.1666666,6.25005013 L4.1666666,168.75005 C4.1666666,169.900643 5.09940674,170.833384 6.25,170.833384 L127.083333,170.833384 C128.233927,170.833384 129.166667,169.900643 129.166667,168.75005 L129.166667,45.8333835 L93.75,45.8333835 C90.3041666,45.8333835 87.5,43.0292169 87.5,39.5833835 L87.5,4.16671673 Z M91.6666666,5.02921673 L91.6666666,39.5833835 C91.6666666,40.7339767 92.5994068,41.6667167 93.75,41.6667167 L128.304167,41.6667167 L91.6666666,5.02921673 Z"></path></clipPath><clipPath id="i3"><path d="M58.3333334,0 C59.4839267,0 60.4166668,0.932740134 60.4166668,2.0833334 C60.4166668,3.23392666 59.4839267,4.1666668 58.3333334,4.1666668 L0,4.1666668 L0,0 Z"></path></clipPath><clipPath id="i4"><path d="M58.3333334,0 C59.4839267,0 60.4166668,0.932740134 60.4166668,2.0833334 C60.4166668,3.23392666 59.4839267,4.1666668 58.3333334,4.1666668 L0,4.1666668 L0,0 Z"></path></clipPath><clipPath id="i5"><path d="M58.3333334,0 C59.4839267,0 60.4166668,0.932740134 60.4166668,2.0833334 C60.4166668,3.23392666 59.4839267,4.1666668 58.3333334,4.1666668 L0,4.1666668 L0,0 Z"></path></clipPath><clipPath id="i6"><path d="M75,0 C79.6023729,0 83.3333334,3.73096033 83.3333334,8.3333332 L83.3333334,75 C83.3333334,79.6023729 79.6023729,83.3333332 75,83.3333332 L8.3333334,83.3333332 C3.73096052,83.3333332 0,79.6023729 0,75 L0,8.3333332 C0,3.73096033 3.73096052,0 8.3333334,0 Z"></path></clipPath><clipPath id="i7"><path d="M8.8229168,0 L15.45625,32.0583334 C15.5877314,32.6453704 15.7159207,33.4003087 15.8393548,34.3246115 L15.8854168,34.6770834 C16.0229168,35.7645834 16.1125002,36.7125 16.15625,37.5229168 L16.3125,37.5229168 C16.5036196,35.6644412 16.8006301,33.8183851 17.2020834,31.99375 L24.5645834,0 L34.0854168,0 L41.7020834,31.5145834 C42.0833334,33.0708334 42.4020834,35.05 42.6541668,37.4583334 L42.78125,37.4583334 C42.8875,35.7979168 43.1520834,33.8791668 43.575,31.70625 L49.66875,0 L58.3333334,0 L47.6708334,45.8333334 L37.5458334,45.8333334 L30.2770834,15.4708334 C30.0666668,14.5958334 29.8270834,13.45625 29.5625,12.05 C29.3589021,11.034541 29.1948892,10.0115451 29.0708334,8.9833334 L28.9458334,8.9833334 C28.8604168,9.7291668 28.6958334,10.8375 28.4520834,12.30625 C28.2774767,13.3967736 28.0816061,14.4837862 27.8645834,15.5666668 L21.0416668,45.8333334 L10.7583334,45.8333334 L0,0 L8.8229168,0 Z"></path></clipPath></defs><g transform="translate(37.5 4.166716734726606)"><g clip-path="url(#i0)"><polygon points="0,0 125,0 125,166.666667 0,166.666667 0,0" stroke="none" fill="#FFFFFF"></polygon></g></g><g transform="translate(124.99999999999997 5.029216734726607)"><g clip-path="url(#i1)"><polygon points="0,0 36.6375,0 36.6375,36.6375 0,36.6375 0,0" stroke="none" fill="#FFFFFF"></polygon></g></g><g transform="translate(33.33333339843749 0.0)"><g clip-path="url(#i2)"><polygon points="0,4.61043319e-15 133.333333,4.61043319e-15 133.333333,175.00005 0,175.00005 0,4.61043319e-15" stroke="none" fill="#605E5C" opacity="64%"></polygon></g></g><g transform="translate(89.58333339843749 116.6667167347266)"><g clip-path="url(#i3)"><polygon points="0,0 60.4166668,0 60.4166668,4.1666668 0,4.1666668 0,0" stroke="none" fill="#103F91"></polygon></g></g><g transform="translate(89.58333339843749 104.16671673472662)"><g clip-path="url(#i3)"><polygon points="0,0 60.4166668,0 60.4166668,4.1666668 0,4.1666668 0,0" stroke="none" fill="#1859BD"></polygon></g></g><g transform="translate(89.58333339843749 91.66671673472662)"><g clip-path="url(#i4)"><polygon points="0,0 60.4166668,0 60.4166668,4.1666668 0,4.1666668 0,0" stroke="none" fill="#2B7CD3"></polygon></g></g><g transform="translate(89.58333339843749 79.1667167347266)"><g clip-path="url(#i5)"><polygon points="0,0 60.4166668,0 60.4166668,4.1666668 0,4.1666668 0,0" stroke="none" fill="#41A5EE"></polygon></g></g><g transform="translate(-7.105427357601002e-15 58.333383531601605)"><g clip-path="url(#i6)"><polygon points="0,0 83.3333334,0 83.3333334,83.3333332 0,83.3333332 0,0" stroke="none" fill="#1859BD"></polygon></g></g><g transform="translate(12.499999999999993 79.1667167347266)"><g clip-path="url(#i7)"><polygon points="0,0 58.3333334,0 58.3333334,45.8333334 0,45.8333334 0,0" stroke="none" fill="#F9F7F7"></polygon></g></g></svg>