<?xml version="1.0" encoding="UTF-8"?><svg version="1.1" width="131px" height="176px" viewBox="0 0 131.0 176.0" xmlns="http://www.w3.org/2000/svg" xmlns:xlink="http://www.w3.org/1999/xlink"><defs><clipPath id="i0"><path d="M86.4581263,0 L130.996836,49.8472058 L130.996836,167.205266 C130.975974,169.526093 130.126326,171.741373 128.636876,173.358369 C127.21102,175.050761 125.221608,176.007128 123.141902,176 L7.85816953,176 C5.78170737,175.981211 3.79965769,175.027657 2.36003208,173.354833 C0.845434475,171.757323 -0.00903061914,169.529484 0,167.20173 L0,8.79469352 C0.10486562,3.99097673 3.56097323,0.122940351 7.85816953,0 L86.4581263,0 Z"></path></clipPath><clipPath id="i1"><path d="M0,0 L44.5418736,49.8542784 L7.86442461,49.8542784 C3.56475731,49.735043 0.104936786,45.8659663 0,41.0595847 L0,0 Z"></path></clipPath><clipPath id="i2"><path d="M80.2101708,0 C82.4246106,0 84.4302603,0.388989345 86.220793,1.16696784 C88.046124,1.95201898 89.5487795,3.00582609 90.7319231,4.32838956 C91.9467015,5.65095302 92.797679,7.1291123 93.2848557,8.75579476 L86.8155282,12.9321248 C86.2493063,11.4355056 85.317398,10.1474456 84.1265657,9.21550917 C83.0035283,8.33144259 81.65272,7.89294571 80.0741409,7.89294571 C78.4639268,7.89294571 77.0055601,8.35266032 75.7022042,9.2650169 C74.3956848,10.1844461 73.361225,11.5070096 72.6019886,13.2397799 C71.8427522,14.9371877 71.4631339,16.9528593 71.4631339,19.2974037 C71.4631339,22.8619599 72.2982941,25.6803638 73.9686143,27.7490795 C75.6705694,29.789505 77.9324615,30.8079496 80.7574537,30.8079496 C82.8833159,30.8079496 84.5093473,30.1784943 85.6292211,28.9231198 L85.6292211,24.1845233 L79.7103401,24.1845233 L79.7103401,16.7512922 L93.1931146,16.7512922 L93.1931146,32.2330649 C92.1301835,34.2345914 90.4155745,35.8153024 88.046124,36.968125 C85.7051448,38.0891212 83.1269042,38.6478513 80.301912,38.6478513 C76.9897428,38.6478513 74.0445379,37.8345102 71.4631339,36.2042916 C68.9383141,34.603856 66.8699266,32.2377911 65.4968006,29.3792981 C64.09854,26.426516 63.3994097,23.0670632 63.3994097,19.30094 C63.3994097,15.4605551 64.1270113,12.0869574 65.5885415,9.16600145 C66.9892331,6.30848753 69.0910626,3.95775451 71.646616,2.39051586 C74.1963852,0.799196232 77.0530125,0 80.2101708,0 Z M12.0718601,0.714325682 C14.8652177,0.714325682 17.2947744,1.23769311 19.3605304,2.29150041 C21.4262862,3.30994508 23.0048655,4.76688663 24.0962679,6.66939769 C25.2224686,8.57190876 25.7824056,10.7926839 25.7824056,13.3387954 C25.7824056,15.8849069 25.2224688,18.1127545 24.0962679,20.0117294 C23.0048655,21.9107043 21.4262862,23.3888634 19.3605304,24.4426707 C17.2947745,25.4611154 14.8652177,25.9703377 12.0718601,25.9703377 L7.78850098,25.9703377 L7.78850098,37.9865697 L-7.10542736e-15,37.9865697 L-7.10542736e-15,0.714325682 L12.0718601,0.714325682 Z M58.4105934,0.710789554 L58.4105934,37.9865697 L52.1690367,37.9865697 L37.0475768,15.326177 L37.0475768,37.9865697 L29.9360617,37.9865697 L29.9360617,0.714325682 L36.1776184,0.714325682 L51.3022418,23.3216745 L51.3022418,0.710789554 L58.4105934,0.710789554 Z M11.2050651,8.0450052 L7.79166434,8.0450052 L7.79166434,18.6361219 L11.2050651,18.6361219 C13.0873389,18.6361219 14.6216292,18.2294513 15.8079362,17.4125739 C16.9910797,16.5992327 17.5826515,15.2413065 17.5826515,13.3387954 C17.5826515,11.471647 16.9752624,10.1314021 15.760484,9.31806094 C14.5773405,8.46935718 13.0588676,8.0450052 11.2050651,8.0450052 Z"></path></clipPath></defs><g clip-path="url(#i0)"><polygon points="-7.08621849e-05,0 130.996836,0 130.996836,176.00004 -7.08621849e-05,176.00004 -7.08621849e-05,0" stroke="none" fill="#2FCA88"></polygon></g><g transform="translate(86.45179936602972 0.0)"><g clip-path="url(#i1)"><polygon points="0,0 44.5482006,0 44.5482006,49.8542784 0,49.8542784 0,0" stroke="none" fill="rgba(255, 255, 255, 0.7)"></polygon></g></g><g transform="translate(19.09803296443269 85.78274117193158)"><g clip-path="url(#i2)"><polygon points="-7.10542736e-15,0 93.2848557,0 93.2848557,38.6478513 -7.10542736e-15,38.6478513 -7.10542736e-15,0" stroke="none" fill="#FFFFFF"></polygon></g></g></svg>