<?xml version="1.0" encoding="UTF-8"?><svg version="1.1" width="73px" height="73px" viewBox="0 0 73.0 73.0" xmlns="http://www.w3.org/2000/svg" xmlns:xlink="http://www.w3.org/1999/xlink"><defs><clipPath id="i0"><path d="M69,0 C71.209139,-4.05812251e-16 73,1.790861 73,4 L73,69 C73,71.209139 71.209139,73 69,73 L4,73 C1.790861,73 2.705415e-16,71.209139 0,69 L0,4 C-2.705415e-16,1.790861 1.790861,4.05812251e-16 4,0 L69,0 Z"></path></clipPath><clipPath id="i1"><path d="M24,0 C27.0295964,0 29.8816143,1.1630847 32.0340807,3.28307091 C34.1865471,5.40305712 35.3757848,8.2050339 35.3757848,11.1761866 L35.3757848,16.8330077 C35.3757848,19.751293 34.2295964,22.5162625 32.141704,24.6203885 C31.5605381,25.2019308 31.2376682,25.9843696 31.2269058,26.8196759 C31.2215247,27.3060568 31.3829596,27.7818642 31.6843049,28.1625101 L32.755157,29.5212045 C33.6801196,30.6895759 35.0994685,31.4146763 36.5961487,31.491637 L36.8609865,31.4984485 C39.826009,31.4984485 42.6188341,32.6403862 44.7282511,34.7127916 C46.8376682,36.7851971 48,39.5290197 48,42.4420182 C48,44.4034019 46.3748879,46 44.3730942,46 L3.62690583,46 C1.62511211,46 0,44.4034019 0,42.4367314 C0,39.5237329 1.16233184,36.7799104 3.27174888,34.7075049 C5.38116592,32.6350994 8.17399103,31.4931617 11.1390135,31.4931617 C12.7587444,31.4931617 14.2547085,30.7741639 15.244843,29.5159177 L16.3156951,28.1572233 C16.6170404,27.7765774 16.7784753,27.2954833 16.7730942,26.8143892 C16.7623318,25.9790829 16.4340807,25.1966441 15.858296,24.609815 C13.7757848,22.505689 12.6242152,19.7407195 12.6242152,16.827721 L12.6242152,11.1708999 C12.6242152,8.19446041 13.8080717,5.39248362 15.9659193,3.27778416 C18.1237668,1.1630847 20.9704036,0 24,0 Z"></path></clipPath></defs><g clip-path="url(#i0)"><polygon points="0,0 73,0 73,73 0,73 0,0" stroke="none" fill="#3B7CFA"></polygon></g><g transform="translate(13.0 14.0)"><g clip-path="url(#i1)"><polygon points="0,0 48,0 48,46 0,46 0,0" stroke="none" fill="#FFFFFF"></polygon></g></g></svg>