<?xml version="1.0" encoding="UTF-8"?><svg version="1.1" width="17px" height="17px" viewBox="0 0 17.0 17.0" xmlns="http://www.w3.org/2000/svg" xmlns:xlink="http://www.w3.org/1999/xlink"><defs><clipPath id="i0"><path d="M9.70336993,0 C10.0991588,0 10.4955561,0.18239635 10.7891333,0.501375644 L11.5378475,1.31438813 C11.8320533,1.63242214 12,2.06151635 12,2.49094029 C12,2.86975842 11.8708009,3.21801962 11.6353349,3.47362074 L3.70737065,12.0678814 C3.68210667,12.0959322 3.6486106,12.1092981 3.61456708,12.1092981 C3.61105932,12.1092981 3.60870728,12.1048355 3.60398297,12.1048355 L0.639154977,12.9815119 C0.595115351,12.9942623 0.550487717,13 0.505860083,13 C0.370801182,13 0.243974341,12.9439643 0.147663011,12.8420932 C0.0190518939,12.6988712 -0.0296917798,12.4957885 0.017875877,12.3073247 L0.832325107,9.06987174 C0.837029155,9.05140566 0.847592977,9.0361272 0.85815682,9.02150823 C0.864036865,9.01194545 0.861705121,8.99983258 0.869896659,8.99158882 L8.79670512,0.395041887 C9.03279969,0.140078293 9.35401322,0 9.70336993,0 Z M1.63915054,10.0261501 L1.22576199,11.6713007 L2.74194579,11.2218278 L1.63915054,10.0261501 Z M7.98870367,2.95380101 L2.26807371,9.15648637 L3.55584757,10.5513778 L9.26591369,4.36082725 L7.98870367,2.95380101 Z M10.0733271,1.27651072 C9.93236788,1.1231105 9.69457011,1.10367715 9.57185933,1.23735828 L8.7955291,2.07903712 L10.0721308,3.48511808 L10.8595926,2.63196389 C10.9147841,2.57245479 10.9447724,2.48968725 10.9453199,2.3983022 C10.9453199,2.28689027 10.9007125,2.17422528 10.8225685,2.08954519 Z"></path></clipPath><clipPath id="i1"><path d="M10.4022864,0 C10.7210491,0 10.9797212,0.266533189 10.9797212,0.593612079 C10.9797212,0.921395504 10.7210491,1.18757643 10.4022864,1.18757643 L1.89812115,1.18757643 C1.48879427,1.18757643 1.15510528,1.52964862 1.15510528,1.95082654 L1.15510528,15.0488653 C1.15510528,15.4697129 1.48879427,15.8114549 1.89812115,15.8114549 L15.1021572,15.8114549 C15.5121266,15.8114549 15.8445735,15.4696909 15.8445735,15.0488653 L15.8445735,7.02407194 C15.8457727,6.69377861 16.1056441,6.42885265 16.4225866,6.42885265 C16.7395076,6.42885265 16.9986937,6.69377864 17,7.02024105 L17,15.1394196 C17,16.1659885 16.1881562,17 15.1895948,17 L1.81006255,17 C0.812165005,17 0,16.1659885 0,15.1394196 L0,1.86091066 C0,0.834341788 0.812165005,0 1.81006255,0 Z"></path></clipPath></defs><g transform="translate(5.0 0.0)"><g clip-path="url(#i0)"><polygon points="-1.50885089e-18,0 12,0 12,13 -1.50885089e-18,13 -1.50885089e-18,0" stroke="none" fill="#346EE2"></polygon></g></g><g clip-path="url(#i1)"><polygon points="0,0 17,0 17,17 0,17 0,0" stroke="none" fill="#346EE2"></polygon></g></svg>